# xmcd CD database file
#
# Track frame offsets:
#	150
#	17327
#	39170
#	55800
#	75340
#	92640
#	114582
#	133447
#	149865
#	167177
#	181920
#	204275
#
# Disc length: 2971 seconds
#
# Revision: 24
# Processed by: cddbd v1.5.2PL0 Copyright (c) Steve Scherf et al.
# Submitted via: CDex 1.81
#
DISCID=9c0b990c
DTITLE=Estefan, Gloria - Cuts both ways
DYEAR=1989
DGENRE=Pop
TTITLE0=Ay, ay, I
TTITLE1=Here we are
TTITLE2=Say
TTITLE3=Think about you now
TTITLE4=Nothin' new
TTITLE5=Oye mi canto (Hear my voice) (English version)
TTITLE6=Don't wanna lose you
TTITLE7=Get on your feet
TTITLE8=Your love is bad for me
TTITLE9=Cuts both ways
TTITLE10=Oye mi canto (Spanish version)
TTITLE11=Si voy a perderte
EXTD=YEAR: 1989
EXTT0=
EXTT1=
EXTT2=
EXTT3=
EXTT4=
EXTT5=
EXTT6=
EXTT7=
EXTT8=
EXTT9=
EXTT10=
EXTT11=
PLAYORDER=
